<svg xmlns="http://www.w3.org/2000/svg" xmlns:xlink="http://www.w3.org/1999/xlink" width="56" height="30" viewBox="0 0 56 30">
    <defs>
        <path id="a" d="M51.247 0h.057c2.55.019 4.603 2.094 4.585 4.634v20.667c.006 2.561-2.071 4.644-4.642 4.655H4.762a4.662 4.662 0 0 1-3.3-1.357 4.574 4.574 0 0 1-1.35-3.292V4.64a4.61 4.61 0 0 1 1.354-3.307A4.702 4.702 0 0 1 4.762 0h46.485zm3.008 4.637c.01-.79-.296-1.55-.85-2.114a2.992 2.992 0 0 0-2.101-.896H38.252l7.454 12.407.688.087.435.568v.533l.47.096.436.59v.512l.487.087.492.533v1.179a8.058 8.058 0 0 0 1.96 1.301c.657.252.732 1.301 1.128 1.861.497.816 1.176 1.14 1.032 1.596-.335 1.222-1.585 3.274-2.752 3.37H45.47v1.964h5.782a3.027 3.027 0 0 0 2.135-.889c.565-.567.88-1.334.877-2.133V4.637h-.008zM22.47 26.372h-2.23c0-5.555 1.884-8.634 4.145-9.245.309-.057.16-1.575-.231-2.04h-1.309c-.21 0-.087-.39-.087-.39l1.058-2.253-.144-.615h-3.905l3.213-2.236c.148-5.902 6.226-6.362 9.888-3.903 2.177 1.436 2.343 4.28 2.177 6.246-.026.125-.566.043-.566.043s-.37 2.168.597 2.168h4.271c1.742-.07 3.423 1.11 3.423 1.11l.401-1.491-9.353-12.14H4.762a3.053 3.053 0 0 0-2.15.867 3.002 3.002 0 0 0-.872 2.144v20.666c-.01.8.304 1.57.871 2.135.571.568 1.344.887 2.151.889h18.862c-.461-.79-.989-1.688-1.15-1.953l-.004-.002z"/>
    </defs>
    <g fill="none" fill-rule="evenodd">
        <mask id="b" fill="#fff">
            <use xlink:href="#a"/>
        </mask>
        <use fill="#747376" fill-rule="nonzero" xlink:href="#a"/>
        <g fill="#B6B2B0" fill-rule="nonzero" mask="url(#b)">
            <path d="M0 0h56v30H0z"/>
        </g>
    </g>
</svg>
