<svg xmlns="http://www.w3.org/2000/svg" xmlns:xlink="http://www.w3.org/1999/xlink" width="40" height="42" viewBox="0 0 40 42">
    <defs>
        <path id="a" d="M39.93 2.44v13.772c.012 11.81-7.784 22.219-19.158 25.579l-.699.207-.7-.207A26.86 26.86 0 0 1 8.1 35.112L3.47 39.724 0 36.273l4.943-4.92A26.486 26.486 0 0 1 .21 16.212L.212 2.44V0h39.717v2.44zm-1.74.02v-.814H1.74v14.603a24.897 24.897 0 0 0 5.095 15.12l.156.2-4.786 4.764 1.157 1.15 4.673-4.652a25.194 25.194 0 0 0 11.696 7.452l.234.07.233-.07a25.24 25.24 0 0 0 12.898-8.913 24.897 24.897 0 0 0 5.094-15.12V2.46zM8.135 30.384A23.27 23.27 0 0 1 3.373 16.25V3.273h32.049L8.155 30.411c-.006-.008-.013-.015-.019-.027zm27.16-6.552a23.326 23.326 0 0 1-3.503 6.552 23.59 23.59 0 0 1-11.828 8.267 23.592 23.592 0 0 1-10.77-6.975l27.36-27.234V16.25a23.305 23.305 0 0 1-1.26 7.583zM15.839 16.17l1.163-.842h-1.437l-.444-1.36-.444 1.36h-1.438l1.163.842-.444 1.36 1.163-.84 1.163.84-.445-1.36zm-6.692 0l1.163-.842H8.873l-.445-1.36-.444 1.36H6.546l1.163.842-.444 1.36 1.163-.84 1.163.84-.444-1.36zm3.072 3.59l-.445-1.361-.444 1.361H9.892l1.163.841-.444 1.36 1.163-.84 1.163.84-.444-1.36 1.163-.84h-1.437zm-4.35-8.92c.027.085.108.14.198.136h.721a.2.2 0 0 0 .2-.136l1.318-2.989h.043v4.005a.1.1 0 0 0 .104.093h1.194a.1.1 0 0 0 .093-.105V4.956a.099.099 0 0 0-.098-.092h-1.224a.16.16 0 0 0-.17.104L8.478 9.009h-.042l-1.8-4.041a.16.16 0 0 0-.17-.104H5.209a.099.099 0 0 0-.092.104v6.888a.1.1 0 0 0 .105.093h1.194a.1.1 0 0 0 .093-.105V7.851h.041l1.32 2.99zm4.934 1.106h4.635a.1.1 0 0 0 .105-.105v-1.156a.097.097 0 0 0-.093-.104h-3.151a.055.055 0 0 1-.063-.063V4.966a.098.098 0 0 0-.093-.104h-1.34a.099.099 0 0 0-.105.092v6.888a.1.1 0 0 0 .093.105h.012v-.001zm8.6-4.262l-.376-.052c-.816-.114-1.111-.374-1.111-.78 0-.449.324-.771.952-.771.586 0 1.108.187 1.653.542a.104.104 0 0 0 .145-.03l.638-.948c.052-.073.042-.114-.02-.156-.597-.46-1.476-.74-2.418-.74-1.539 0-2.522.865-2.522 2.167 0 1.25.805 1.927 2.25 2.124l.376.052c.849.115 1.098.376 1.098.792 0 .5-.422.84-1.162.84-.739 0-1.391-.353-1.863-.729a.104.104 0 0 0-.148 0l-.009.01-.795.906a.129.129 0 0 0 .01.178c.555.53 1.632.968 2.743.968 1.841 0 2.794-.948 2.794-2.229 0-1.281-.769-1.945-2.235-2.144z"/>
    </defs>
    <g fill="none" fill-rule="evenodd">
        <mask id="b" fill="#fff">
            <use xlink:href="#a"/>
        </mask>
        <use fill="#747376" fill-rule="nonzero" xlink:href="#a"/>
        <g fill="#B6B2B0" fill-rule="nonzero" mask="url(#b)">
            <path d="M0 0h40v42H0z"/>
        </g>
    </g>
</svg>
