<svg xmlns="http://www.w3.org/2000/svg" xmlns:xlink="http://www.w3.org/1999/xlink" width="18" height="42" viewBox="0 0 18 42">
    <defs>
        <path id="a" d="M11.492.044h.668c1.524.004 1.723.008 1.883.036.977.173 1.785.697 2.315 1.5.217.328.38.696.475 1.074.115.457.107-.21.102 9.189-.002 4.702-.006 8.54-.009 8.528-.017-.084-.198-.43-.32-.612a.484.484 0 0 1-.068-.162.48.48 0 0 0-.13-.263 1.652 1.652 0 0 0-.258-.156l-.206-.107-.059-.125c-.055-.118-.065-.128-.17-.178a2.338 2.338 0 0 0-.317-.108 1.024 1.024 0 0 1-.226-.079c-.077-.085-.18-.599-.252-1.243a4.597 4.597 0 0 0-.189-.853c-.11-.335-.202-.554-.478-1.129a7 7 0 0 1-.252-.572 8.483 8.483 0 0 1-.182-.895 16.493 16.493 0 0 0-.226-1.198l-.061-.253v-.5c0-.274-.009-.618-.019-.765-.09-1.316-.421-2.25-1.021-2.887a3.544 3.544 0 0 0-.663-.548c-.132-.09-.298-.207-.368-.26a5.358 5.358 0 0 0-.373-.256c-.04-.025-.05-.044-.05-.104 0-.067-.008-.08-.11-.16a4.472 4.472 0 0 0-.74-.442c-.324-.163-.335-.174-.336-.345 0-.097.028-.218.062-.263a.299.299 0 0 1 .088-.059c.195-.092.424-.408.727-1.003l.126-.245.096-.033c.106-.037.17-.101.24-.24.023-.045.092-.165.154-.265.258-.422.288-.577.143-.745l-.068-.08.094-.202c.209-.445.296-.795.295-1.185 0-.282-.028-.446-.106-.616-.101-.221-.215-.345-.366-.398-.048-.017-.084-.055-.154-.162a1.402 1.402 0 0 0-.186-.226 2.219 2.219 0 0 0-.53-.324L10.32.06l.068-.01c.028-.004.484-.006 1.105-.006zm-.258 11.625c.044 0 .04-.02.127.486.186 1.063.396 2.165.522 2.742.133.604.166.703.39 1.164.407.84.656 1.366.845 1.79.237.532.28.64.26.659-.01.008-.102.041-.205.074-.775.247-1.465.871-1.81 1.637a3.183 3.183 0 0 0 .281 3.116c.155.223.486.562.704.72.91.657 2.077.76 3.08.27.427-.207.82-.533 1.106-.914.1-.133.275-.435.348-.6l.057-.128v7.986c0 5.48-.005 8.042-.018 8.164a3.535 3.535 0 0 1-.877 1.977 3.435 3.435 0 0 1-1.378.924 3.167 3.167 0 0 1-.533.139c-.077.01-.085.007-.056-.013.318-.22.493-.414.634-.702.206-.42.21-1.004.012-1.724-.025-.091-.125-.414-.224-.718a11.615 11.615 0 0 1-.178-.58c0-.016.016-.064.035-.108a.477.477 0 0 0 .036-.159.866.866 0 0 0-.12-.376c-.07-.104-.122-.315-.203-.816-.04-.248-.08-.489-.09-.535-.081-.37-.046-.749.144-1.543.04-.166.085-.373.101-.458.053-.286.004-.517-.193-.9-.121-.234-.179-.324-.424-.665-.144-.199-.174-.253-.203-.364-.03-.12-.101-.541-.303-1.805-.154-.964-.287-1.654-.391-2.021-.105-.37-.292-.769-.621-1.328a8.734 8.734 0 0 1-.585-1.181c-.175-.432-.23-.7-.304-1.469-.153-1.613-.308-2.522-.642-3.77l-.094-.349-.042-.156.105-.103.105-.103-.074-.273-.235-.87c-.233-.858-.509-1.846-.623-2.228-.146-.484-.256-.708-.436-.886-.091-.09-.244-.187-.294-.187-.03 0-.033-.016-.027-.207l.007-.206.164-.44c.359-.966.702-1.844.792-2.031.059-.121.08-.146.225-.255.374-.285 1.014-.677 1.103-.677zM6.248.037C7.702.036 9.131.04 9.15.052c.013.008-.037.039-.127.079-.261.113-.438.232-.614.41-.24.245-.342.47-.418.927-.034.2-.07.635-.079.935l-.004.138-.146.011c-.265.02-.322.11-.318.503.005.485.144.859.308.83.019-.003.03.006.027.023-.003.015-.033.264-.068.553-.068.575-.097.728-.162.87-.132.285-.41.384-1.183.422l-.233.011-.054.063-.055.063-.484.045c-.721.068-.942.114-1.24.256-.219.106-.36.207-.55.395-.372.365-.732.921-1.201 1.853-.212.422-.416.925-.63 1.56-.033.096-.159.38-.28.633C.938 12.1.574 12.98.43 13.559a7.494 7.494 0 0 1-.091.317c-.097.314-.089.451.051.804.035.088.08.236.102.33.07.319.085.357.166.428.133.116.315.144.951.145h.48v.446l-.199.2c-.213.215-.352.39-.412.52-.1.215-.297 1.167-.367 1.772-.109.943.084 1.67.826 3.11.52 1.01.702 1.42.845 1.91.036.125.071.234.079.242.007.009.205.044.44.078.234.035.428.065.43.068.002.002.054.102.114.222.548 1.08 2.186 3.552 2.915 4.396.056.066.115.144.13.175.057.11.183.242.517.543.188.168.515.485.727.704.342.352.755.76.987.972.782.718 1.58 1.336 2.238 1.736l.163.099.118.27c.142.329.212.506.28.71l.052.154-.054.062a.382.382 0 0 0-.113.3c.002.206.072.374.416.996.24.434.395.749.5 1.013.088.226.184.541.184.608a.63.63 0 0 1-.047.158c-.094.227-.053.396.153.623l.097.108-.012.336c-.012.342-.063.898-.146 1.597-.094.8-.099 1.154-.018 1.466.066.257.247.51.473.663.06.04.11.079.11.086 0 .018-10.055.013-10.3-.005a3.32 3.32 0 0 1-2.158-1.016C.429 40.264.11 39.528.06 38.602c-.012-.23-.016-5.963-.012-17.879C.054 4.297.056 3.173.085 3.01c.143-.817.465-1.445 1.02-1.991A3.325 3.325 0 0 1 3.187.056C3.31.045 4.792.038 6.248.037zM2.196 33.41V39.74h.358c.33 0 .359-.002.36-.032.004-.39-.004-3.122-.01-3.28l-.027-.76c-.01-.298-.022-.62-.027-.716l-.008-.174.043.22c.05.251.136.723.306 1.67a790.142 790.142 0 0 0 .468 2.59l.087.482h1.05V33.41h-.739l.011 1.032c.006.568.015 1.073.019 1.124.004.05.013.244.019.43a21.322 21.322 0 0 0 .035.771c.012.231.024.435.037.633.036.542.063 1.024.057 1.03a8.783 8.783 0 0 1-.1-.52 1039.581 1039.581 0 0 0-.486-2.748 568.907 568.907 0 0 0-.281-1.591l-.028-.161H2.196zm3.174 0v6.334l.722-.009c.613-.006.738-.012.829-.039.295-.087.503-.256.623-.507.13-.27.131-.285.131-1.147 0-.745-.001-.774-.04-.9a.904.904 0 0 0-.237-.411l-.1-.1.11-.111a.892.892 0 0 0 .234-.422c.026-.094.032-.221.038-.853.008-.818-.001-.94-.087-1.182-.125-.351-.4-.573-.788-.634a10.66 10.66 0 0 0-.775-.019h-.66zm3.32 0l-.009.06c-.012.08-.018.128-.253 2.132l-.233 1.982c-.12.991-.242 2.055-.242 2.1v.055h.82l.01-.105c.006-.058.028-.328.049-.6.02-.273.042-.515.046-.537.009-.042.01-.042.374-.042h.366l.01.106c.006.058.028.32.048.582.02.263.04.504.045.537l.01.06h.43c.236 0 .429-.008.429-.015 0-.015-.03-.275-.35-3.086l-.25-2.21a97.054 97.054 0 0 0-.11-.95l-.01-.069H8.69zm.539.71c.026 0 .05.27.285 2.976.03.337.049.618.043.624-.006.006-.144.01-.307.01-.218 0-.299-.005-.305-.022-.005-.012.02-.363.055-.78a154.223 154.223 0 0 0 .181-2.344c.006-.065.015-.193.02-.284.007-.091.015-.169.02-.173.002-.004.005-.007.008-.007zm-3.034.094l.241.007c.268.006.307.021.378.145.035.06.036.096.036.897v.835l-.04.066c-.061.1-.124.122-.378.129a1.78 1.78 0 0 1-.23-.001 36.952 36.952 0 0 1-.007-1.043v-1.035zm0 2.769v.002l.22.005c.255.01.34.04.399.144.035.062.036.094.036.816 0 .724-.001.755-.037.826-.061.122-.15.156-.406.156h-.212V36.983z"/>
    </defs>
    <g fill="none" fill-rule="evenodd" transform="translate(.806)">
        <mask id="b" fill="#fff">
            <use xlink:href="#a"/>
        </mask>
        <use fill="#747376" fill-rule="nonzero" xlink:href="#a"/>
        <g fill="#B6B2B0" fill-rule="nonzero" mask="url(#b)">
            <path d="M-.212-.013h17v42h-17z"/>
        </g>
    </g>
</svg>
