<svg xmlns="http://www.w3.org/2000/svg" xmlns:xlink="http://www.w3.org/1999/xlink" width="31" height="42" viewBox="0 0 31 42">
    <defs>
        <path id="a" d="M14.985 37.72l-.052.002s-1.894-2.402-6.868-3.187c-5.68-.896-5.516-3.622-5.516-3.76v-13.1h24.82v13.098c0 .138.208 2.864-5.516 3.76-4.953.78-6.868 3.187-6.868 3.187zM28.93 4.773l.037.027h.993v25.984c0 .652-.156 1.952-1.202 3.245-1.301 1.597-3.475 2.635-6.504 3.081-2.418.362-4.204 1.13-5.463 2.366-.89.875-1.8 2.476-1.8 2.476s-.884-1.569-1.82-2.476c-1.25-1.236-3.019-2.01-5.464-2.366-3.023-.445-5.209-1.468-6.504-3.059C.156 32.725 0 31.452 0 30.763V4.776h.989C2.293 5.717 4.743 7 7.912 6.204 13.413 4.82 14.985 0 14.985 0s1.561 4.826 7.076 6.2c3.122.8 5.619-.473 6.868-1.427zm.104 1.007s-3.001 2.381-7.232 1.307c-4.928-1.26-6.868-5.016-6.868-5.016s-1.911 3.763-6.868 5.016C3.902 8.145.885 5.76.885 5.76v24.977c0 .849.348 4.452 6.972 5.41 2.607.384 4.553 1.235 5.934 2.608.446.436.841.924 1.176 1.453a8.357 8.357 0 0 1 1.173-1.452c1.4-1.373 3.346-2.227 5.934-2.609 6.608-.97 6.923-4.576 6.972-5.409V5.76l-.013.021zM9.157 27.258h.01l-2.644-8.272h-2.83v1.612l.88.442v8.962l-.86.342v1.405l3.74.974v-1.649l-.86-.672v-5.356l2.7 8.114 1.862.568V21.053l.729-.438v-1.612H8.393v1.612l.764.438v6.205zm6.452 5.674l.012.021v-6.258h1.248l.466.685h.989V24h-.99l-.483.722h-1.228v-3.797h1.639l.429 1.344h1.416v-3.283h-6.452v1.633l.811.42v11.296l-.817.342v1.367l3.71 1.411v-1.612l-.75-.912zm4.111.583l-.012.043 6.555-1.782V27.63H24.74l-.306 2.482-1.598.44v-9.492l.729-.42v-1.633h-3.709v1.633l.786.42v10.076l-.92.768v1.612zM3.2 15.007l-1.124-.858H3.45l.452-1.326.454 1.326H5.73l-1.125.864.413 1.344-1.12-.8-1.118.8.412-1.344.008-.006zm4.865 0L6.94 14.15h1.373l.454-1.326.453 1.326h1.374l-1.124.864.412 1.344-1.119-.8-1.118.8.412-1.344.007-.006zM3.2 10.553L2.076 9.69H3.45l.452-1.326.454 1.326H5.73l-1.125.868.413 1.344-1.12-.8-1.118.8.412-1.344.008-.006zm4.865 0L6.94 9.69h1.373l.454-1.326.453 1.326h1.374l-1.124.864.412 1.344-1.119-.8-1.118.8.412-1.344.007-.002zm19.096 5.78l-1.117-.8-1.118.8.412-1.343-1.124-.865h1.373l.454-1.325.453 1.325h1.374l-1.126.858.412 1.344.007.007zm-4.892 0l-1.118-.8-1.119.8.413-1.343-1.125-.865h1.375l.453-1.326.454 1.326h1.374l-1.125.858.412 1.344.006.007zm4.892-4.454l-1.117-.801-1.118.801.412-1.344-1.124-.864h1.373l.454-1.326.453 1.326h1.374l-1.126.86.412 1.344.007.004zm-4.892 0l-1.118-.801-1.119.801.413-1.344-1.125-.864h1.375l.453-1.326.454 1.326h1.374l-1.125.86.412 1.344.006.004zm-6.244-2.333a3.858 3.858 0 0 0-1.654-.823c.144-.138.292-.257.421-.368.584.14 1.128.418 1.588.811-.122.128-.24.252-.352.379h-.003zm-.723.885a3.85 3.85 0 0 0-1.711-.848c.1-.132.217-.273.33-.403a3.832 3.832 0 0 1 1.706.832c-.114.14-.222.282-.322.42h-.003zm-.65.928a3.703 3.703 0 0 0-1.702-.816s.18-.3.284-.456c.63.13 1.218.419 1.712.84-.106.153-.205.299-.294.433zm3.397-4.433s-.582.309-1.394 1.124c.178.104.348.222.508.353-.123.111-.248.231-.365.343a3.78 3.78 0 0 0-1.504-.774c.142-.103.292-.205.44-.304.153.042.304.092.451.152A7.572 7.572 0 0 1 17.897 6.8a.815.815 0 0 0-.337-.042c-3.606.047-6.923 2.79-6.296 7.476.067.498.257 1.405.495 1.803.176-1.513.59-2.988 1.223-4.368a3.68 3.68 0 0 0-.542-.153c.088-.186.21-.425.21-.425a3.74 3.74 0 0 1 1.674.785c-.115.191-.194.316-.247.415a3.879 3.879 0 0 0-.53-.36 15.355 15.355 0 0 0-1.588 4.172c.01.053.114.08.2.069 3.948-.521 5.774-2.578 6.345-4.8a7.001 7.001 0 0 0-.247-4.231c-.034-.084-.102-.233-.217-.223l.01.007z"/>
    </defs>
    <g fill="none" fill-rule="evenodd" transform="translate(.5)">
        <mask id="b" fill="#fff">
            <use xlink:href="#a"/>
        </mask>
        <use fill="#747376" fill-rule="nonzero" xlink:href="#a"/>
        <g fill="#B6B2B0" fill-rule="nonzero" mask="url(#b)">
            <path d="M0 0h30v42H0z"/>
        </g>
    </g>
</svg>
